<?xml version="1.0" standalone="no"?>
<!DOCTYPE svg PUBLIC "-//W3C//DTD SVG 20010904//EN"
 "http://www.w3.org/TR/2001/REC-SVG-20010904/DTD/svg10.dtd">
<svg version="1.0" xmlns="http://www.w3.org/2000/svg"
 width="512.000000pt" height="512.000000pt" viewBox="0 0 512.000000 512.000000"
 preserveAspectRatio="xMidYMid meet">
<metadata>
Created by potrace 1.14, written by Peter Selinger 2001-2017
</metadata>
<g transform="translate(0.000000,512.000000) scale(0.100000,-0.100000)"
fill="#000000" stroke="none">
<path d="M2378 5115 c-2 -1 -41 -5 -88 -9 -47 -3 -101 -8 -120 -10 -19 -3 -59
-7 -89 -11 -30 -3 -64 -8 -75 -10 -12 -3 -32 -7 -46 -9 -81 -13 -119 -21 -245
-52 -451 -112 -882 -310 -1180 -543 -22 -17 -53 -41 -70 -54 -79 -60 -227
-216 -313 -332 -26 -35 -75 -124 -97 -175 -57 -134 -65 -257 -30 -425 9 -44
18 -88 20 -97 41 -198 230 -769 338 -1018 8 -19 33 -78 55 -130 184 -437 432
-898 657 -1218 51 -74 102 -144 112 -155 10 -12 25 -31 33 -43 94 -133 325
-371 480 -495 187 -149 452 -279 620 -304 24 -4 48 -9 53 -12 20 -12 272 -10
345 3 443 81 860 402 1269 979 375 529 751 1326 982 2080 32 105 80 283 88
325 2 13 11 56 19 95 22 101 26 221 9 293 -58 249 -285 524 -632 766 -29 20
-57 36 -62 36 -5 0 -11 4 -13 8 -7 17 -257 151 -408 220 -176 80 -554 200
-711 226 -19 3 -45 8 -59 11 -76 16 -181 32 -265 40 -33 3 -78 8 -100 11 -42
6 -472 14 -477 9z m467 -499 c17 -3 55 -7 85 -11 30 -3 80 -10 110 -15 30 -5
71 -12 90 -15 28 -5 193 -44 245 -59 469 -130 949 -408 1166 -676 102 -125
106 -177 38 -450 -37 -149 -180 -573 -234 -695 -7 -16 -30 -70 -50 -120 -294
-718 -681 -1361 -1030 -1710 -247 -247 -459 -362 -680 -371 -228 -8 -451 100
-696 337 -132 128 -201 208 -341 400 -73 101 -218 322 -218 334 0 2 -13 23
-29 47 -15 24 -48 79 -71 123 -23 44 -46 85 -50 90 -17 21 -203 402 -265 542
-36 81 -70 157 -75 168 -42 92 -167 427 -223 600 -54 166 -83 272 -112 405
-14 67 -15 139 -1 177 57 161 357 414 701 590 171 87 464 196 615 228 8 2 45
11 83 20 117 27 260 50 382 60 44 4 81 9 83 10 5 5 444 -4 477 -9z"/>
<path d="M2165 4059 c-141 -27 -254 -111 -315 -234 -40 -80 -47 -142 -48 -379
-1 -111 -1 -209 -1 -218 -1 -15 -10 -18 -48 -18 -101 0 -172 -41 -216 -124
-21 -41 -22 -46 -23 -641 -2 -661 -2 -658 59 -724 18 -18 52 -42 76 -53 43
-20 68 -20 911 -20 835 0 870 1 911 19 46 21 103 77 122 122 7 18 11 207 13
621 1 656 1 665 -59 728 -44 45 -102 71 -169 73 -57 2 -58 3 -59 33 0 17 0
117 -1 221 0 105 -4 215 -9 245 -23 146 -136 277 -285 332 -56 21 -76 22 -439
23 -209 1 -398 -2 -420 -6z m707 -358 c10 -1 32 -14 50 -30 l33 -29 3 -215 3
-215 -401 0 -401 0 3 214 3 214 26 26 c15 14 41 29 58 33 25 5 546 7 623 2z
m-230 -889 c146 -40 232 -225 170 -364 -10 -24 -34 -61 -53 -82 l-34 -39 -1
-131 c-2 -138 -8 -168 -46 -208 -35 -37 -66 -50 -120 -50 -61 0 -117 35 -143
89 -15 31 -19 63 -20 169 l0 131 -34 38 c-86 98 -98 230 -29 334 68 105 186
148 310 113z"/>
</g>
</svg>
